<svg width="24" height="24" fill="none" xmlns="http://www.w3.org/2000/svg"><path opacity=".4" d="M16.693 12.033c-.022-2.153 1.776-3.186 1.856-3.237-1.01-1.461-2.583-1.661-3.144-1.685-1.339-.134-2.612.78-3.292.78-.678 0-1.726-.76-2.837-.74-1.46.022-2.805.84-3.556 2.132-1.516 2.601-.388 6.455 1.09 8.565.722 1.032 1.583 2.192 2.713 2.15 1.089-.042 1.5-.696 2.817-.696 1.316 0 1.686.697 2.838.675 1.172-.021 1.914-1.052 2.631-2.088.83-1.198 1.17-2.358 1.191-2.417-.026-.012-2.285-.868-2.307-3.44zm-2.165-6.318c.6-.72 1.005-1.719.894-2.715-.864.035-1.912.57-2.532 1.287-.556.638-1.043 1.654-.913 2.63.965.075 1.95-.484 2.55-1.202z" fill="#4360DF"/></svg>