<svg width="24" height="24" fill="none" xmlns="http://www.w3.org/2000/svg"><path opacity=".4" d="M5.066 9.194c-.589 0-1.066.42-1.066.94v4.024c0 .52.477.941 1.066.941.588 0 1.066-.421 1.066-.941v-4.023c0-.52-.478-.94-1.066-.94zm8.864-4.752l.932-.937a.296.296 0 0 0 0-.418.293.293 0 0 0-.416 0L13.299 4.24a5.391 5.391 0 0 0-2.572-.003l-1.144-1.15a.293.293 0 0 0-.416 0 .297.297 0 0 0 0 .418l.927.932c-1.547.598-2.621 1.895-2.621 3.401 0 .019 9.066 0 9.066 0 0-1.503-1.068-2.796-2.609-3.396zm5.004 4.752c-.588 0-1.066.42-1.066.94v4.024c0 .52.478.941 1.066.941.59 0 1.066-.422 1.066-.941v-4.023c0-.52-.478-.94-1.066-.94zM7.473 15.631c0 .887.713 1.606 1.594 1.609v2.819c0 .52.478.941 1.066.941.589 0 1.066-.421 1.066-.941v-2.82H12.8v2.82c0 .52.477.941 1.066.941.588 0 1.066-.421 1.066-.941v-2.82h.007c.883 0 1.6-.72 1.6-1.608V9.193H7.473v6.438z" fill="#4360DF"/></svg>