<svg width="88" height="35" xmlns="http://www.w3.org/2000/svg"><path d="M79.494.463c3.584.319 4.48.831 5.424 1.648 2.443 2.117 2.988 7.846 3.069 13.547a130.52 130.52 0 0 1 0 3.685c-.08 5.7-.626 11.43-3.07 13.546-.942.817-1.839 1.33-5.423 1.648-4.485.398-10.56.454-15.151.46-1.895.004-3.791.004-5.686 0-4.592-.006-10.666-.062-15.151-.46-3.585-.319-4.48-.831-5.424-1.648-2.464-2.135-2.998-7.945-3.071-13.694-.014-1.08-.014-2.163-.002-3.243.066-5.796.588-11.688 3.073-13.84.943-.818 1.84-1.33 5.424-1.649C47.99.065 54.066.01 58.657.003c1.895-.004 3.79-.004 5.686 0 0 0 10.666.062 15.151.46zM60 28.95V13h-3.102v11.71c-2.233 2.69-2.795.68-2.795-.33V13H51v12.013c0 2.268.548 3.714 1.943 3.944.93.152 2.272 0 3.955-2.125v2.118H60zM44.723 29h3.554V9.283H52V6H41v3.283h3.723V29zM77.5 11c-2.475 0-4.5 2.155-4.5 4.79v8.42c0 2.635 2.025 4.79 4.5 4.79s4.5-2.155 4.5-4.79v-1.549h-3.063v1.981c0 .842-.647 1.53-1.437 1.53s-1.437-.688-1.437-1.53v-4.037H82V15.79c0-2.635-2.025-4.79-4.5-4.79zm1.437 6.896h-2.874V15.39c0-.842.647-1.53 1.437-1.53s1.437.688 1.437 1.53v2.507zM62 28.976h3.056V27.15c.58.725 1.537 2.043 3.381 1.828 3.085-.36 2.523-4.5 2.523-4.5V15.66c0-2.906-1.015-4.069-2.81-4.069-1.468 0-2.695 1.311-3.094 1.79V6H62v22.977zm3.056-3.554V15.167c.389-.46.911-.857 1.538-.815 1.436.097 1.292 1.938 1.292 1.938s-.024 6.806-.024 8.114c0 1.308-.502 1.768-1.34 1.793-.715.02-1.308-.595-1.466-.775zm-36.125 3.53v-2.04c-1.665 2.047-2.993 2.193-3.913 2.046-1.38-.22-1.922-1.613-1.922-3.798V11.78h3.07v12.77c0 .972.556 2.907 2.765.317v-13.09H32v17.174h-3.07zm-24.81 0v-9.196L0 6h3.46l2.389 8.631L8.237 6h3.46L7.583 19.736v9.216h-3.46zm12.027-17.367c2.526 0 4.592 2.08 4.592 4.621v8.125c0 2.541-2.066 4.62-4.592 4.62-2.525 0-4.591-2.079-4.591-4.62v-8.125c0-2.541 2.066-4.62 4.591-4.62zm-1.466 13.162c0 .812.66 1.476 1.466 1.476.807 0 1.467-.664 1.467-1.476V15.82c0-.811-.66-1.476-1.467-1.476-.806 0-1.466.665-1.466 1.476v8.928z" fill="#4360DF" fill-rule="evenodd"/></svg>