<svg width="101" height="25" xmlns="http://www.w3.org/2000/svg"><path d="M19.28 10.7c.216 0 .392.163.392.363V22.91c0 .068-.012.216-.127.275 0 0-2.792 1.816-7.393 1.816C6.595 25 0 23.42 0 12.813S5.76 0 11.375 0c4.875 0 6.804.997 7.12 1.206a.33.33 0 01.15.283l-.938 3.67c0 .2-.226.425-.47.356-.78-.223-2.003-.684-4.844-.684-3.282 0-6.778.897-6.778 7.716 0 6.818 3.357 7.629 5.76 7.629 2.037 0 2.774-.232 2.774-.232v-4.72h-3.281c-.217 0-.393-.162-.393-.362v-3.799c0-.2.176-.363.393-.363h8.411zm43.326-9.442v22.888c0 .202-.174.366-.391.366h-4.748c-.216 0-.392-.164-.392-.366l.013-9.79h-7.383v9.79c0 .202-.174.366-.39.366h-4.736c-.216 0-.392-.164-.392-.366V1.258c0-.202.176-.365.392-.365h4.736c.216 0 .39.163.39.365V9.71h7.383l-.001-8.453c0-.202.176-.365.392-.365h4.736c.217 0 .39.163.39.365zM28.652 3.74c0 1.573-1.367 2.85-3.054 2.85-1.685 0-3.053-1.277-3.053-2.85 0-1.575 1.368-2.848 3.053-2.848 1.687 0 3.054 1.273 3.054 2.848zm-.584 15.225v4.606c0 .373-.114.585-.581.585h-4.254c-.388 0-.688-.133-.688-.578V8.443c0-.2.193-.407.41-.407h4.721c.217 0 .392.164.392.364v10.566zm52.537-10.93c.217 0 .392.164.392.365l.002 15.365c0 .201-.177.365-.392.365l-3.034.013a.418.418 0 01-.346-.198c-.054-.1-.173-.933-.173-.933s-2.5 1.582-5.6 1.582c-3.779 0-6.525-1.114-6.525-5.665V8.4c0-.201.176-.365.391-.365h4.77c.216 0 .391.164.391.365v9.788c0 1.532.45 2.242 2.144 2.242 1.695 0 2.89-.807 2.89-.807V8.401c0-.201.175-.365.39-.365h4.7zm13.278-.128c2.671 0 6.625.922 6.625 7.978 0 7.054-2.476 9.076-6.792 9.076-3.677 0-5.619-1.7-5.619-1.7s-.118.933-.2 1.056a.398.398 0 01-.344.194h-3.295c-.217 0-.392-.164-.392-.366V1.258c0-.202.175-.365.391-.365h4.75c.216 0 .39.163.39.365v7.75s1.816-1.1 4.486-1.1zm-52.265.244c.217 0 .392.163.392.365v3.525c0 .203-.175.366-.392.366h-3.553v6.435c0 .97.592 1.72 2.337 1.72.545 0 1.075-.078 1.282-.078.208 0 .393.163.393.365l-.004 3.097c0 .145-.082.28-.223.328-.232.08-1.641.429-2.82.429-2.577 0-6.397-.494-6.397-5.524v-6.772H30.15c-.217 0-.392-.163-.392-.366V9.228a.37.37 0 01.283-.35c.165-.043 2.59-.584 2.59-.584V3.815c0-.167.102-.244.29-.244h4.841c.206 0 .297.082.297.247l.006 4.334h3.552zM92.03 20.804c2.28.064 3.016-.712 3.016-4.644 0-3.729-1.63-4.2-3.323-4.061-1.338.11-2.429.728-2.429.728v7.248s1.106.683 2.736.73z" fill="#4360DF" fill-rule="evenodd"/></svg>