<svg width="126" height="69" fill="none" xmlns="http://www.w3.org/2000/svg"><g filter="url(#filter0_d)"><path fill-rule="evenodd" clip-rule="evenodd" d="M12 2a8 8 0 0 0-8 8v38a8 8 0 0 0 8 8h45.32c.618 0 1.125.465 1.434 1l2.598 4.5c1.155 2 4.041 2 5.196 0l2.598-4.5c.309-.535.816-1 1.434-1h43.144a8 8 0 0 0 8-8V10a8 8 0 0 0-8-8H12z" fill="#fff"/></g><defs><filter id="filter0_d" x="0" y="0" width="125.724" height="69" filterUnits="userSpaceOnUse" color-interpolation-filters="sRGB"><feFlood flood-opacity="0" result="BackgroundImageFix"/><feColorMatrix in="SourceAlpha" values="0 0 0 0 0 0 0 0 0 0 0 0 0 0 0 0 0 0 127 0"/><feOffset dy="2"/><feGaussianBlur stdDeviation="2"/><feColorMatrix values="0 0 0 0 0.170288 0 0 0 0 0.231873 0 0 0 0 0.278061 0 0 0 0.124066 0"/><feBlend in2="BackgroundImageFix" result="effect1_dropShadow"/><feBlend in="SourceGraphic" in2="effect1_dropShadow" result="shape"/></filter></defs></svg>