<svg width="147" height="56" fill="none" xmlns="http://www.w3.org/2000/svg"><path fill-rule="evenodd" clip-rule="evenodd" d="M28 0C12.536 0 0 12.536 0 28s12.536 28 28 28 28-12.536 28-28S43.464 0 28 0z" fill="#4360DF"/><path fill-rule="evenodd" clip-rule="evenodd" d="M28.94 26.773c1.406.146 2.812.292 4.54.196 4.684-.261 7.521-2.665 7.32-6.258-.205-3.656-3.98-5.908-7.756-5.697-6.154.343-10.68 5.746-11.19 11.921a14.98 14.98 0 0 1 2.546-.359c1.728-.096 3.134.05 4.54.197zm-12.064 7.992c.194 3.351 3.77 5.416 7.348 5.222 5.83-.314 10.117-5.267 10.6-10.928a14.63 14.63 0 0 1-2.411.33c-1.638.088-2.97-.046-4.302-.18-1.332-.135-2.664-.269-4.302-.18-4.436.239-7.124 2.442-6.933 5.736z" fill="#fff"/><path d="M66.897 32.65h4.047c0 .685.193 1.177.58 1.476.387.299.883.448 1.49.448.5 0 .91-.092 1.226-.277.325-.193.488-.505.488-.936 0-.255-.07-.461-.211-.62-.132-.166-.339-.311-.62-.434a8.075 8.075 0 0 0-1.081-.396 65.3 65.3 0 0 1-1.582-.5 32.357 32.357 0 0 1-1.569-.541 5.412 5.412 0 0 1-1.279-.712 3.058 3.058 0 0 1-.87-1.029c-.202-.404-.303-.905-.303-1.503 0-.685.136-1.278.409-1.78a3.438 3.438 0 0 1 1.147-1.239c.492-.325 1.08-.566 1.766-.725a9.58 9.58 0 0 1 2.268-.25c1.01 0 1.88.114 2.61.343.73.228 1.327.54 1.793.936.466.395.809.861 1.028 1.397a4.35 4.35 0 0 1 .343 1.727h-4.074c0-.536-.14-.954-.421-1.252-.273-.3-.69-.449-1.253-.449-.43 0-.8.097-1.107.29-.308.185-.462.466-.462.844 0 .255.07.462.211.62.15.15.365.285.646.409.281.123.629.25 1.042.382.413.123.887.272 1.423.448a16.8 16.8 0 0 1 1.622.527c.501.194.94.431 1.319.712.386.273.69.62.91 1.042.228.413.342.94.342 1.582 0 .756-.158 1.402-.475 1.938a3.824 3.824 0 0 1-1.278 1.292c-.528.334-1.143.571-1.846.712-.703.15-1.442.224-2.215.224-1.925 0-3.419-.4-4.483-1.2-1.054-.808-1.581-1.977-1.581-3.507zm12.906-5.59v-3.072h2.044v-3.863h4.113v3.863h2.966v3.072H85.96v4.653c0 .484.044.87.132 1.16.088.282.21.506.369.673.167.158.365.264.593.316.237.044.501.066.791.066.176 0 .4-.004.673-.013.272-.017.51-.044.712-.08V37a15.91 15.91 0 0 1-1.16.145c-.458.044-.998.066-1.622.066-.484 0-.993-.035-1.53-.105a3.528 3.528 0 0 1-1.49-.554c-.456-.3-.834-.756-1.133-1.371-.299-.624-.448-1.477-.448-2.558V27.06h-2.044zm10.613 3.427c0-.975.154-1.88.461-2.715a6.52 6.52 0 0 1 1.306-2.15 6.333 6.333 0 0 1 1.964-1.436 5.625 5.625 0 0 1 2.426-.528c.975 0 1.82.207 2.531.62.72.413 1.261.936 1.622 1.569v-1.86h4.126V37h-4.126v-1.833c-.326.598-.849 1.108-1.57 1.53-.72.422-1.581.633-2.583.633a5.68 5.68 0 0 1-2.426-.528 6.332 6.332 0 0 1-1.964-1.437 6.674 6.674 0 0 1-1.306-2.162 7.797 7.797 0 0 1-.461-2.716zm4.1 0c0 .449.075.88.224 1.292.158.405.37.756.633 1.055.272.29.598.527.976.712.378.176.8.264 1.265.264.466 0 .888-.088 1.266-.264a3.12 3.12 0 0 0 .976-.712 3.18 3.18 0 0 0 .632-1.055c.158-.404.238-.835.238-1.292 0-.448-.08-.87-.238-1.265a3.364 3.364 0 0 0-.632-1.055 2.814 2.814 0 0 0-.963-.725 2.997 2.997 0 0 0-1.279-.264c-.466 0-.887.088-1.265.264a2.952 2.952 0 0 0-.976.725c-.264.308-.475.66-.633 1.055-.15.395-.224.817-.224 1.265zm12.551-3.427v-3.072h2.043v-3.863h4.114v3.863h2.966v3.072h-2.966v4.653c0 .484.044.87.131 1.16.088.282.211.506.37.673.167.158.364.264.593.316.237.044.501.066.791.066.176 0 .4-.004.672-.013.273-.017.51-.044.712-.08V37c-.307.053-.694.101-1.16.145a17.22 17.22 0 0 1-1.622.066c-.483 0-.993-.035-1.529-.105a3.53 3.53 0 0 1-1.49-.554c-.457-.3-.835-.756-1.133-1.371-.299-.624-.449-1.477-.449-2.558V27.06h-2.043zm11.47 4.653v-7.725h4.1v6.67c0 .932.167 1.693.501 2.282.334.58.931.87 1.793.87.861 0 1.494-.295 1.898-.884.413-.597.62-1.402.62-2.412v-6.526h4.126V37h-4.126v-1.859c-.361.686-.91 1.222-1.648 1.608-.739.387-1.622.58-2.65.58-.897 0-1.635-.14-2.215-.421a4.216 4.216 0 0 1-1.397-1.068 3.881 3.881 0 0 1-.818-1.74c-.123-.66-.184-1.455-.184-2.387zm15.701.937h4.048c0 .685.193 1.177.58 1.476.386.299.883.448 1.489.448.501 0 .91-.092 1.227-.277.325-.193.487-.505.487-.936 0-.255-.07-.461-.211-.62-.131-.166-.338-.311-.619-.434a8.084 8.084 0 0 0-1.081-.396c-.44-.132-.967-.299-1.582-.5a32.176 32.176 0 0 1-1.569-.541 5.398 5.398 0 0 1-1.279-.712 3.06 3.06 0 0 1-.87-1.029c-.202-.404-.303-.905-.303-1.503 0-.685.136-1.278.408-1.78a3.445 3.445 0 0 1 1.147-1.239c.493-.325 1.081-.566 1.767-.725a9.577 9.577 0 0 1 2.268-.25c1.01 0 1.88.114 2.61.343.729.228 1.327.54 1.793.936.466.395.808.861 1.028 1.397a4.35 4.35 0 0 1 .343 1.727h-4.074c0-.536-.14-.954-.422-1.252-.272-.3-.69-.449-1.252-.449-.431 0-.8.097-1.108.29-.307.185-.461.466-.461.844 0 .255.07.462.211.62.149.15.365.285.646.409.281.123.628.25 1.041.382.414.123.888.272 1.424.448a16.8 16.8 0 0 1 1.622.527c.501.194.94.431 1.318.712.387.273.69.62.91 1.042.228.413.343.94.343 1.582 0 .756-.159 1.402-.475 1.938a3.822 3.822 0 0 1-1.279 1.292c-.527.334-1.142.571-1.845.712-.704.15-1.442.224-2.215.224-1.925 0-3.419-.4-4.483-1.2-1.054-.808-1.582-1.977-1.582-3.507z" fill="#000"/></svg>